<?xml version="1.0" encoding="utf-8"?>
<!-- Generator: Adobe Illustrator 14.0.0, SVG Export Plug-In . SVG Version: 6.00 Build 43363)  -->
<!DOCTYPE svg PUBLIC "-//W3C//DTD SVG 1.1//EN" "http://www.w3.org/Graphics/SVG/1.1/DTD/svg11.dtd">
<svg version="1.1"
	 id="adidas" xmlns:rdf="http://www.w3.org/1999/02/22-rdf-syntax-ns#" xmlns:cc="http://creativecommons.org/ns#" xmlns:dc="http://purl.org/dc/elements/1.1/"
	 xmlns="http://www.w3.org/2000/svg" xmlns:xlink="http://www.w3.org/1999/xlink" x="0px" y="0px" width="400px" height="300px"
	 viewBox="0 0 400 300" enable-background="new 0 0 400 300" xml:space="preserve">
<path d="M354.819,230.813c-9.405-2.266-21.697-1.941-21.697-7.814c0.723-4.229,4.329-5.199,10.128-5.199
	c8.685,0,9.405,4.901,9.405,7.813h14.456c-0.697-11.396-10.104-18.885-24.583-18.885c-15.179,0-23.888,8.137-23.888,18.563
	c0,5.848,2.911,11.396,7.962,14.009c3.634,1.617,8.684,2.937,15.204,3.881c5.771,0.995,11.569,1.319,12.291,5.873
	c0,2.937-3.607,6.843-10.127,6.843c-9.406-0.324-11.569-5.523-11.569-9.431h-15.204c0.722,11.72,10.152,19.854,26.053,19.854
	c14.48,0,26.051-5.522,26.051-19.854C369.301,238.624,363.504,233.1,354.819,230.813z"/>
<polygon points="142.899,187.105 116.125,141.173 66.211,170.16 75.617,187.105 "/>
<rect x="163.929" y="206.613" width="14.394" height="57.977"/>
<path d="M76.312,212.025c-5.05-3.559-10.85-5.2-17.368-5.2c-15.9,0-29.635,13.036-29.635,29.635
	c0,16.596,13.734,29.958,29.635,29.958c6.519,0,13.039-1.643,17.368-4.9v3.581h14.481v-57.627H76.312V212.025z M59.666,253.055
	c-8.659,0-16.622-7.488-16.622-16.596c0-8.783,7.962-16.598,16.622-16.598c9.432,0,16.646,7.813,16.646,16.598
	C76.312,245.566,69.097,253.055,59.666,253.055z"/>
<polygon points="319.42,187.093 232.605,36.655 182.691,65.965 252.137,187.093 "/>
<path d="M142.898,212.025c-5.077-3.559-10.874-5.2-17.369-5.2c-16.646,0-29.659,13.036-29.659,29.635
	c0,16.596,13.013,29.958,29.659,29.958c6.495,0,12.292-1.643,17.369-4.9v3.581h14.456v-77.481h-14.456V212.025z M126.251,253.055
	c-9.404,0-16.646-7.488-16.646-16.596c0-8.783,7.241-16.598,16.646-16.598c8.659,0,16.647,7.813,16.647,16.598
	C142.898,245.566,134.91,253.055,126.251,253.055z"/>
<polygon points="175.451,89.75 124.816,118.389 163.881,187.088 163.881,201.421 178.338,201.421 178.338,187.088 231.163,187.088 
	"/>
<path d="M359.92,201.872c4.329,0,7.241-3.259,7.241-7.166s-2.912-7.166-7.241-7.166c-3.633,0-7.239,3.259-7.239,7.166
	S356.287,201.872,359.92,201.872z M359.92,188.536c3.607,0,5.772,2.909,5.772,6.17c0,3.26-2.165,6.194-5.772,6.194
	c-3.633,0-5.798-2.936-5.798-6.194S356.287,188.536,359.92,188.536z"/>
<path d="M358.526,195.379h1.442l1.443,3.26h1.443l-1.443-3.26c0.722-0.324,1.443-0.971,1.443-2.266c0-1.293-1.443-2.289-2.165-2.289
	h-3.261v7.813h1.096L358.526,195.379L358.526,195.379z M358.526,191.82h1.442c1.443,0,1.443,0.623,1.443,1.295
	c0,0.971,0,1.294-1.443,1.294h-1.442V191.82z"/>
<path d="M297.64,212.025c-5.053-3.559-10.85-5.2-17.369-5.2c-16.62,0-29.634,13.036-29.634,29.635
	c0,16.596,13.014,29.958,29.634,29.958c6.521,0,12.316-1.643,17.369-4.9v3.581h13.759v-57.627H297.64V212.025L297.64,212.025z
	 M281.018,253.055c-9.405,0-16.646-7.488-16.646-16.596c0-8.783,7.24-16.598,16.646-16.598c8.685,0,16.622,7.813,16.622,16.598
	C297.64,245.566,289.703,253.055,281.018,253.055z"/>
<path d="M231.154,212.025c-4.354-3.559-10.151-5.2-16.646-5.2c-16.646,0-30.381,13.036-30.381,29.635
	c0,16.596,13.735,29.958,30.381,29.958c6.494,0,12.291-1.643,16.646-4.9v3.581h14.457v-77.481h-14.457V212.025z M214.509,253.055
	c-8.685,0-16.646-7.488-16.646-16.596c0-8.783,7.962-16.598,16.646-16.598c9.405,0,16.646,7.813,16.646,16.598
	C231.154,245.566,223.914,253.055,214.509,253.055z"/>
</svg>
