<?xml version="1.0" encoding="utf-8"?>
<!-- Generator: Adobe Illustrator 19.2.1, SVG Export Plug-In . SVG Version: 6.00 Build 0)  -->
<svg version="1.1" id="layer" xmlns="http://www.w3.org/2000/svg" xmlns:xlink="http://www.w3.org/1999/xlink" x="0px" y="0px"
	 viewBox="0 0 652 652" style="enable-background:new 0 0 652 652;" xml:space="preserve">
<style type="text/css">
	.st0{fill:#233D74;}
	.st1{fill:#FFFFFF;}
</style>
<g>
	<path class="st0" d="M563.2,321.7c0,138.1-108.7,250-242.7,250c-134,0-242.7-111.9-242.7-250c0-138.1,108.7-250,242.7-250
		C454.5,71.7,563.2,183.7,563.2,321.7"/>
	<polygon class="st1" points="409.1,302 384.3,302 384.3,313.4 409.1,313.4 409.1,328.9 384.3,328.9 384.3,341.5 409.1,341.5 
		409.1,362.9 358.4,362.9 358.4,281.3 409.1,281.3 	"/>
	<path class="st1" d="M453.3,340.5c0,0.1,9.9-20.9,9.9-20.9s9.7,21,9.7,20.9H453.3z M463.2,274.5c-16.1,29.2-47.6,88.3-47.6,88.3
		h27.1l4.4-8.9h32.3l4.3,8.9h27.3L463.2,274.5z"/>
	<path class="st1" d="M308.8,317.8l17.8-36.6h27.6c0.1,0-45.4,87.7-45.4,87.7l-45.3-87.7h27.6C291.1,281.3,307.4,315.3,308.8,317.8"
		/>
	<path class="st1" d="M259.2,362.9h-25.9v-81.6c0,0,25.9,0.1,25.9,0V362.9z"/>
	<polygon class="st1" points="184,312.8 184,281.3 209.9,281.3 209.9,368.9 167.9,331.2 167.9,362.9 142,362.9 142,275.1 	"/>
</g>
</svg>
